<svg width="981" height="980" viewBox="0 0 981 980" fill="none" xmlns="http://www.w3.org/2000/svg">
<path d="M612.5 980H40.8C16.3 980 0 963.7 0 939.2V40.8C0 16.3 16.3 0 40.8 0H612.5C637 0 653.3 16.3 653.3 40.8V326.6C653.3 351.1 637 367.4 612.5 367.4C588 367.4 571.7 351.1 571.7 326.6V81.6H81.7V898.3H571.7V653.3C571.7 628.8 588 612.5 612.5 612.5C637 612.5 653.3 628.8 653.3 653.3V939.1C653.3 963.7 637 980 612.5 980Z" fill="white"/>
<path d="M939.2 530.8H326.7C302.2 530.8 285.9 514.5 285.9 490C285.9 465.5 302.2 449.2 326.7 449.2H939.2C963.7 449.2 980 465.5 980 490C980 514.5 963.7 530.8 939.2 530.8Z" fill="white"/>
<path d="M939.2 530.8C926.9 530.8 918.8 526.7 910.6 518.5L747.3 355.3C731 339 731 314.5 747.3 298.1C763.6 281.8 788.1 281.8 804.5 298.1L967.8 461.4C984.1 477.7 984.1 502.2 967.8 518.6C959.6 526.8 951.4 530.8 939.2 530.8Z" fill="white"/>
<path d="M775.8 694.2C763.5 694.2 755.4 690.1 747.2 681.9C730.9 665.6 730.9 641.1 747.2 624.7L910.5 461.4C926.8 445.1 951.3 445.1 967.7 461.4C984 477.7 984 502.2 967.7 518.6L804.4 681.9C796.3 690.1 788.1 694.2 775.8 694.2Z" fill="white"/>
</svg>
